# xmcd CD database file
#
# Track frame offsets:
#	150
#	32020
#	40651
#	67401
#	87758
#	100377
#	119612
#	146167
#
# Disc length: 2259 seconds
#
# Revision: 0
# Processed by: cddbd v1.5.1PL0 Copyright (c) Steve Scherf et al.
# Submitted via: CDex 1.51
#
DISCID=7308d108
DTITLE=妹音-ion- - SHOWER
DYEAR=2004
DGENRE=Trance
TTITLE0=Shower
TTITLE1=WonderStroll
TTITLE2=LuckySunday
TTITLE3=SummerTelescope
TTITLE4=Comet
TTITLE5=PenguinStreet
TTITLE6=JETCREAM
TTITLE7=LovelyHighSchool
EXTD=YEAR: 2004
EXTT0=
EXTT1=
EXTT2=
EXTT3=
EXTT4=
EXTT5=
EXTT6=
EXTT7=
PLAYORDER=
